<svg version="1.1" id="Layer_1" xmlns="http://www.w3.org/2000/svg" xmlns:xlink="http://www.w3.org/1999/xlink" x="0px" y="0px"
	 width="100%" viewBox="0 0 2048 2048" enable-background="new 0 0 2048 2048" xml:space="preserve">
<path fill="#1E1E1E" opacity="1.000000" stroke="none" 
	d="
M996.000000,2049.000000 
	C664.000000,2049.000000 332.500000,2049.000000 1.000000,2049.000000 
	C1.000000,1366.333374 1.000000,683.666687 1.000000,1.000000 
	C683.666687,1.000000 1366.333374,1.000000 2049.000000,1.000000 
	C2049.000000,683.666687 2049.000000,1366.333374 2049.000000,2049.000000 
	C1698.166626,2049.000000 1347.333374,2049.000000 996.000000,2049.000000 
M1121.691040,944.063110 
	C1127.890869,940.027893 1134.171753,936.110413 1140.262085,931.916016 
	C1144.297852,929.136536 1148.060181,925.960083 1152.566528,922.780945 
	C1153.531860,922.302002 1154.497192,921.823059 1155.462524,921.344055 
	C1155.253052,921.055603 1155.043579,920.767151 1154.834106,920.478638 
	C1153.886841,921.323669 1152.939575,922.168640 1151.340332,923.305420 
	C1144.604004,927.410828 1137.748535,931.336548 1131.178345,935.692688 
	C1127.550903,938.097778 1124.401855,941.224731 1120.703857,944.107178 
	C1120.790161,944.056641 1120.876587,944.006104 1121.691040,944.063110 
M1360.511108,1276.040283 
	C1348.430786,1270.099243 1335.974121,1264.808105 1324.350708,1258.077637 
	C1302.116821,1245.203613 1281.887085,1229.361328 1268.015259,1207.535767 
	C1258.624512,1192.760376 1251.413208,1176.429443 1244.629761,1160.207642 
	C1234.795288,1136.689697 1229.678833,1111.769409 1226.917969,1086.492188 
	C1225.533569,1073.817749 1225.291504,1060.975708 1225.254028,1048.207275 
	C1225.195312,1028.209106 1226.136597,1008.108582 1232.163574,988.948608 
	C1242.246948,956.892578 1256.281372,926.573792 1275.734375,898.979004 
	C1280.136597,892.734375 1284.889282,886.736389 1289.270752,880.477905 
	C1291.558838,877.209656 1290.634033,875.651550 1286.381348,875.171143 
	C1276.082153,874.007629 1266.554810,876.879211 1257.137573,880.176575 
	C1217.073975,894.204468 1178.649658,911.659851 1143.544189,935.792358 
	C1132.306274,943.517578 1120.789307,951.046448 1110.572754,960.002869 
	C1090.371826,977.712097 1075.771851,999.778809 1064.943726,1024.267212 
	C1056.439331,1043.500000 1050.345947,1063.518188 1049.056519,1084.612549 
	C1048.338989,1096.346558 1048.243164,1108.207520 1049.077271,1119.925171 
	C1050.184937,1135.486572 1051.479858,1151.156250 1054.441162,1166.440918 
	C1063.180298,1211.548340 1079.958008,1253.714722 1103.360596,1293.236572 
	C1121.340088,1323.600098 1142.039429,1351.955200 1168.084229,1375.899414 
	C1198.848999,1404.182983 1234.640137,1424.586548 1273.467773,1439.633667 
	C1300.362305,1450.056274 1328.078491,1457.753540 1356.587280,1462.415527 
	C1366.986694,1464.116089 1377.370483,1465.938965 1387.805542,1467.387817 
	C1399.558716,1469.019531 1411.359009,1471.481567 1423.143677,1471.508911 
	C1466.967896,1471.610718 1510.794189,1470.877319 1554.619507,1470.425781 
	C1615.611450,1469.797485 1676.602783,1469.086548 1737.595825,1468.606934 
	C1742.113892,1468.571411 1744.671997,1466.883179 1745.604614,1462.918091 
	C1746.772339,1457.953491 1748.015381,1452.877441 1748.152100,1447.820312 
	C1749.133301,1411.527222 1750.034912,1375.229858 1750.580566,1338.927979 
	C1751.083008,1305.489746 1751.229248,1272.044556 1751.276611,1238.602051 
	C1751.291870,1227.802124 1750.281128,1217.004517 1750.113403,1206.200073 
	C1749.689575,1178.873657 1749.894531,1151.529297 1748.928833,1124.224609 
	C1748.636963,1115.971069 1745.447510,1107.795166 1743.343628,1099.645996 
	C1742.731445,1097.274536 1740.576538,1095.185913 1740.354492,1092.851074 
	C1739.740356,1086.391602 1735.305298,1083.477661 1730.413696,1080.788330 
	C1726.328857,1078.542480 1722.392578,1075.827759 1718.045898,1074.303711 
	C1711.682617,1072.072388 1705.098022,1069.893799 1698.449951,1069.196533 
	C1689.716064,1068.280396 1680.828613,1068.840088 1672.007446,1068.739746 
	C1642.362427,1068.402344 1612.715210,1067.633057 1583.072998,1067.796509 
	C1520.754517,1068.140259 1458.439087,1069.003418 1396.121460,1069.541626 
	C1391.168701,1069.584351 1386.187134,1068.929565 1381.258423,1068.293335 
	C1376.932007,1067.734985 1375.320435,1068.831055 1375.336670,1073.211792 
	C1375.439697,1101.078491 1379.141602,1128.167480 1390.072754,1154.200317 
	C1408.653198,1198.450806 1439.450562,1228.826172 1485.946289,1242.890137 
	C1513.232910,1251.143433 1541.069214,1251.545166 1569.104858,1250.924683 
	C1570.703003,1250.889282 1572.302612,1250.920044 1574.877808,1250.920044 
	C1574.877808,1260.330566 1574.974365,1269.250977 1574.850952,1278.168335 
	C1574.724121,1287.335083 1569.276611,1293.601562 1560.255981,1294.663940 
	C1556.722412,1295.079956 1553.076904,1294.501709 1549.481323,1294.444092 
	C1536.563599,1294.237427 1523.645874,1293.937744 1510.727539,1293.912964 
	C1501.767822,1293.895752 1492.807373,1294.425781 1483.847046,1294.431152 
	C1474.016235,1294.437012 1464.157349,1294.526123 1454.360840,1293.851685 
	C1439.180298,1292.806519 1423.821899,1292.292236 1408.946045,1289.433960 
	C1392.801392,1286.332031 1377.122681,1280.804810 1360.511108,1276.040283 
M969.992004,1299.497559 
	C994.118530,1260.293457 1012.105774,1218.554565 1021.140259,1173.282837 
	C1027.991943,1138.948975 1031.643066,1104.513428 1023.277771,1069.733398 
	C1012.754089,1025.979614 990.952209,989.419189 955.797302,961.044006 
	C923.520020,934.991516 887.440796,915.364502 849.569214,898.971863 
	C835.555359,892.906006 820.913513,888.239441 806.395630,883.424683 
	C802.563354,882.153748 796.734741,880.196716 794.661133,884.783081 
	C793.511169,887.326416 796.335144,892.590210 798.666687,895.632324 
	C812.654236,913.882812 823.570435,933.862976 832.518494,954.920776 
	C841.501709,976.061218 850.615723,997.250549 852.788757,1020.491272 
	C857.322693,1068.980957 852.023315,1116.276367 834.774048,1161.982422 
	C826.990601,1182.606689 818.232544,1202.926392 804.128662,1220.088745 
	C781.163818,1248.033569 751.536255,1266.904785 718.117432,1279.948975 
	C684.807434,1292.950562 649.997314,1298.255493 614.399597,1298.308350 
	C580.436707,1298.358765 546.472046,1297.859985 512.509827,1297.465820 
	C503.893585,1297.365845 498.338745,1292.836792 496.782959,1284.287964 
	C495.870972,1279.276489 495.962463,1274.030762 496.063965,1268.899536 
	C496.198822,1262.080688 497.012909,1255.274536 497.134308,1248.455933 
	C497.602051,1222.183716 496.165344,1196.128906 487.023407,1171.112671 
	C478.761993,1148.506104 468.225403,1127.081177 449.568634,1111.194824 
	C411.886444,1079.108154 367.798157,1064.833618 318.518555,1065.917114 
	C314.650360,1066.002197 313.628387,1067.997925 314.167084,1071.451172 
	C314.704041,1074.893311 315.571472,1078.353271 315.555115,1081.801758 
	C315.381012,1118.461426 314.864380,1155.119873 314.817841,1191.779175 
	C314.708679,1277.768433 314.730560,1363.758179 314.879364,1449.747314 
	C314.910217,1467.570190 323.314178,1475.700684 341.058105,1475.832886 
	C362.222137,1475.990723 383.387909,1475.935669 404.552948,1475.927124 
	C459.541138,1475.904785 514.529358,1475.852051 569.517517,1475.823242 
	C588.328552,1475.813354 607.214722,1476.926025 625.935974,1475.634033 
	C673.841064,1472.328491 721.443115,1466.564697 767.790222,1453.126831 
	C812.230164,1440.242065 853.427368,1420.807373 890.106384,1392.383301 
	C922.825623,1367.027832 947.664307,1334.800171 969.992004,1299.497559 
M728.563843,665.969238 
	C701.606262,660.161743 674.291809,657.053345 646.765930,656.830139 
	C587.855591,656.352356 528.930481,655.682190 470.029877,656.470886 
	C379.405945,657.684265 288.797699,660.065674 198.182190,661.921448 
	C191.764893,662.052856 185.342575,661.938660 179.099792,661.938660 
	C178.934982,663.479126 178.862885,663.658875 178.908539,663.800659 
	C179.619827,666.010010 180.336578,668.217712 181.070770,670.419617 
	C193.108398,706.520752 211.610428,738.803406 238.622696,765.783691 
	C273.550659,800.670471 315.026306,823.314514 364.159088,830.885498 
	C399.334656,836.305786 434.763184,837.471863 470.246521,835.575012 
	C529.897278,832.386230 589.515747,831.639221 648.902405,838.990295 
	C690.360107,844.122070 731.877686,849.312012 772.979797,856.652710 
	C844.012390,869.339050 907.527832,899.586182 963.827271,944.518433 
	C978.205444,955.993652 990.655212,969.877625 1004.076477,982.564392 
	C1007.692932,985.982971 1011.367859,989.448853 1015.474121,992.212219 
	C1020.629456,995.681458 1023.709290,993.913391 1023.889465,987.776611 
	C1023.971802,984.968750 1023.903870,982.052795 1023.249329,979.344055 
	C1019.460388,963.662659 1016.172913,947.813477 1011.424072,932.419556 
	C998.575134,890.768005 980.776184,851.399780 953.792908,816.809204 
	C931.805786,788.623291 906.541443,763.497620 879.361389,740.319092 
	C861.095337,724.742310 842.233093,709.986389 820.813599,698.806519 
	C791.838196,683.682739 761.312256,672.966248 728.563843,665.969238 
M1814.471680,780.956848 
	C1856.630615,748.929077 1883.754028,706.751404 1899.371216,656.100037 
	C1896.993042,655.978027 1895.350708,655.864807 1893.706543,655.813660 
	C1858.732666,654.724243 1823.763306,653.447754 1788.783569,652.600159 
	C1724.560425,651.043945 1660.337036,649.183167 1596.102661,648.514160 
	C1547.120239,648.003967 1498.119751,649.041077 1449.129395,649.572937 
	C1411.902344,649.977173 1374.909302,652.694824 1338.602417,661.692810 
	C1302.139038,670.729675 1267.388306,683.899353 1235.975708,704.816162 
	C1213.039917,720.088440 1192.273804,738.107910 1172.541382,757.280945 
	C1150.656616,778.545349 1129.552612,800.553040 1112.657471,826.147827 
	C1084.197388,869.262268 1066.658569,916.852051 1055.626343,967.028992 
	C1054.563110,971.864685 1054.173096,976.933960 1054.175903,981.894470 
	C1054.178589,986.863586 1057.194946,988.529846 1061.518799,986.037231 
	C1064.795532,984.148254 1067.860718,981.712585 1070.577759,979.066162 
	C1079.286621,970.583740 1087.482910,961.556458 1096.423218,953.333313 
	C1149.292358,904.705688 1211.368408,873.052368 1280.544312,855.109375 
	C1315.739380,845.980469 1351.880493,841.825806 1387.860840,836.949768 
	C1443.108765,829.462341 1498.544922,825.426697 1554.323486,826.863953 
	C1585.605957,827.670044 1616.887451,829.001831 1648.171509,829.068359 
	C1665.783936,829.105835 1683.442749,827.500061 1701.007202,825.852356 
	C1742.865234,821.925842 1780.377808,806.645813 1814.471680,780.956848 
M1157.484619,919.484924 
	C1157.484619,919.484924 1157.512451,919.506470 1157.484619,919.484924 
z"/>
<path fill="#FEFEFE" opacity="1.000000" stroke="none" 
	d="
M1360.875977,1276.187744 
	C1377.122681,1280.804810 1392.801392,1286.332031 1408.946045,1289.433960 
	C1423.821899,1292.292236 1439.180298,1292.806519 1454.360840,1293.851685 
	C1464.157349,1294.526123 1474.016235,1294.437012 1483.847046,1294.431152 
	C1492.807373,1294.425781 1501.767822,1293.895752 1510.727539,1293.912964 
	C1523.645874,1293.937744 1536.563599,1294.237427 1549.481323,1294.444092 
	C1553.076904,1294.501709 1556.722412,1295.079956 1560.255981,1294.663940 
	C1569.276611,1293.601562 1574.724121,1287.335083 1574.850952,1278.168335 
	C1574.974365,1269.250977 1574.877808,1260.330566 1574.877808,1250.920044 
	C1572.302612,1250.920044 1570.703003,1250.889282 1569.104858,1250.924683 
	C1541.069214,1251.545166 1513.232910,1251.143433 1485.946289,1242.890137 
	C1439.450562,1228.826172 1408.653198,1198.450806 1390.072754,1154.200317 
	C1379.141602,1128.167480 1375.439697,1101.078491 1375.336670,1073.211792 
	C1375.320435,1068.831055 1376.932007,1067.734985 1381.258423,1068.293335 
	C1386.187134,1068.929565 1391.168701,1069.584351 1396.121460,1069.541626 
	C1458.439087,1069.003418 1520.754517,1068.140259 1583.072998,1067.796509 
	C1612.715210,1067.633057 1642.362427,1068.402344 1672.007446,1068.739746 
	C1680.828613,1068.840088 1689.716064,1068.280396 1698.449951,1069.196533 
	C1705.098022,1069.893799 1711.682617,1072.072388 1718.045898,1074.303711 
	C1722.392578,1075.827759 1726.328857,1078.542480 1730.413696,1080.788330 
	C1735.305298,1083.477661 1739.740356,1086.391602 1740.354492,1092.851074 
	C1740.576538,1095.185913 1742.731445,1097.274536 1743.343628,1099.645996 
	C1745.447510,1107.795166 1748.636963,1115.971069 1748.928833,1124.224609 
	C1749.894531,1151.529297 1749.689575,1178.873657 1750.113403,1206.200073 
	C1750.281128,1217.004517 1751.291870,1227.802124 1751.276611,1238.602051 
	C1751.229248,1272.044556 1751.083008,1305.489746 1750.580566,1338.927979 
	C1750.034912,1375.229858 1749.133301,1411.527222 1748.152100,1447.820312 
	C1748.015381,1452.877441 1746.772339,1457.953491 1745.604614,1462.918091 
	C1744.671997,1466.883179 1742.113892,1468.571411 1737.595825,1468.606934 
	C1676.602783,1469.086548 1615.611450,1469.797485 1554.619507,1470.425781 
	C1510.794189,1470.877319 1466.967896,1471.610718 1423.143677,1471.508911 
	C1411.359009,1471.481567 1399.558716,1469.019531 1387.805542,1467.387817 
	C1377.370483,1465.938965 1366.986694,1464.116089 1356.587280,1462.415527 
	C1328.078491,1457.753540 1300.362305,1450.056274 1273.467773,1439.633667 
	C1234.640137,1424.586548 1198.848999,1404.182983 1168.084229,1375.899414 
	C1142.039429,1351.955200 1121.340088,1323.600098 1103.360596,1293.236572 
	C1079.958008,1253.714722 1063.180298,1211.548340 1054.441162,1166.440918 
	C1051.479858,1151.156250 1050.184937,1135.486572 1049.077271,1119.925171 
	C1048.243164,1108.207520 1048.338989,1096.346558 1049.056519,1084.612549 
	C1050.345947,1063.518188 1056.439331,1043.500000 1064.943726,1024.267212 
	C1075.771851,999.778809 1090.371826,977.712097 1110.572754,960.002869 
	C1120.789307,951.046448 1132.306274,943.517578 1143.544189,935.792358 
	C1178.649658,911.659851 1217.073975,894.204468 1257.137573,880.176575 
	C1266.554810,876.879211 1276.082153,874.007629 1286.381348,875.171143 
	C1290.634033,875.651550 1291.558838,877.209656 1289.270752,880.477905 
	C1284.889282,886.736389 1280.136597,892.734375 1275.734375,898.979004 
	C1256.281372,926.573792 1242.246948,956.892578 1232.163574,988.948608 
	C1226.136597,1008.108582 1225.195312,1028.209106 1225.254028,1048.207275 
	C1225.291504,1060.975708 1225.533569,1073.817749 1226.917969,1086.492188 
	C1229.678833,1111.769409 1234.795288,1136.689697 1244.629761,1160.207642 
	C1251.413208,1176.429443 1258.624512,1192.760376 1268.015259,1207.535767 
	C1281.887085,1229.361328 1302.116821,1245.203613 1324.350708,1258.077637 
	C1335.974121,1264.808105 1348.430786,1270.099243 1360.875977,1276.187744 
z"/>
<path fill="#FEFEFE" opacity="1.000000" stroke="none" 
	d="
M969.784973,1299.796387 
	C947.664307,1334.800171 922.825623,1367.027832 890.106384,1392.383301 
	C853.427368,1420.807373 812.230164,1440.242065 767.790222,1453.126831 
	C721.443115,1466.564697 673.841064,1472.328491 625.935974,1475.634033 
	C607.214722,1476.926025 588.328552,1475.813354 569.517517,1475.823242 
	C514.529358,1475.852051 459.541138,1475.904785 404.552948,1475.927124 
	C383.387909,1475.935669 362.222137,1475.990723 341.058105,1475.832886 
	C323.314178,1475.700684 314.910217,1467.570190 314.879364,1449.747314 
	C314.730560,1363.758179 314.708679,1277.768433 314.817841,1191.779175 
	C314.864380,1155.119873 315.381012,1118.461426 315.555115,1081.801758 
	C315.571472,1078.353271 314.704041,1074.893311 314.167084,1071.451172 
	C313.628387,1067.997925 314.650360,1066.002197 318.518555,1065.917114 
	C367.798157,1064.833618 411.886444,1079.108154 449.568634,1111.194824 
	C468.225403,1127.081177 478.761993,1148.506104 487.023407,1171.112671 
	C496.165344,1196.128906 497.602051,1222.183716 497.134308,1248.455933 
	C497.012909,1255.274536 496.198822,1262.080688 496.063965,1268.899536 
	C495.962463,1274.030762 495.870972,1279.276489 496.782959,1284.287964 
	C498.338745,1292.836792 503.893585,1297.365845 512.509827,1297.465820 
	C546.472046,1297.859985 580.436707,1298.358765 614.399597,1298.308350 
	C649.997314,1298.255493 684.807434,1292.950562 718.117432,1279.948975 
	C751.536255,1266.904785 781.163818,1248.033569 804.128662,1220.088745 
	C818.232544,1202.926392 826.990601,1182.606689 834.774048,1161.982422 
	C852.023315,1116.276367 857.322693,1068.980957 852.788757,1020.491272 
	C850.615723,997.250549 841.501709,976.061218 832.518494,954.920776 
	C823.570435,933.862976 812.654236,913.882812 798.666687,895.632324 
	C796.335144,892.590210 793.511169,887.326416 794.661133,884.783081 
	C796.734741,880.196716 802.563354,882.153748 806.395630,883.424683 
	C820.913513,888.239441 835.555359,892.906006 849.569214,898.971863 
	C887.440796,915.364502 923.520020,934.991516 955.797302,961.044006 
	C990.952209,989.419189 1012.754089,1025.979614 1023.277771,1069.733398 
	C1031.643066,1104.513428 1027.991943,1138.948975 1021.140259,1173.282837 
	C1012.105774,1218.554565 994.118530,1260.293457 969.784973,1299.796387 
z"/>
<path fill="#FEFEFE" opacity="1.000000" stroke="none" 
	d="
M728.980591,666.031982 
	C761.312256,672.966248 791.838196,683.682739 820.813599,698.806519 
	C842.233093,709.986389 861.095337,724.742310 879.361389,740.319092 
	C906.541443,763.497620 931.805786,788.623291 953.792908,816.809204 
	C980.776184,851.399780 998.575134,890.768005 1011.424072,932.419556 
	C1016.172913,947.813477 1019.460388,963.662659 1023.249329,979.344055 
	C1023.903870,982.052795 1023.971802,984.968750 1023.889465,987.776611 
	C1023.709290,993.913391 1020.629456,995.681458 1015.474121,992.212219 
	C1011.367859,989.448853 1007.692932,985.982971 1004.076477,982.564392 
	C990.655212,969.877625 978.205444,955.993652 963.827271,944.518433 
	C907.527832,899.586182 844.012390,869.339050 772.979797,856.652710 
	C731.877686,849.312012 690.360107,844.122070 648.902405,838.990295 
	C589.515747,831.639221 529.897278,832.386230 470.246521,835.575012 
	C434.763184,837.471863 399.334656,836.305786 364.159088,830.885498 
	C315.026306,823.314514 273.550659,800.670471 238.622696,765.783691 
	C211.610428,738.803406 193.108398,706.520752 181.070770,670.419617 
	C180.336578,668.217712 179.619827,666.010010 178.908539,663.800659 
	C178.862885,663.658875 178.934982,663.479126 179.099792,661.938660 
	C185.342575,661.938660 191.764893,662.052856 198.182190,661.921448 
	C288.797699,660.065674 379.405945,657.684265 470.029877,656.470886 
	C528.930481,655.682190 587.855591,656.352356 646.765930,656.830139 
	C674.291809,657.053345 701.606262,660.161743 728.980591,666.031982 
z"/>
<path fill="#FEFEFE" opacity="1.000000" stroke="none" 
	d="
M1814.174805,781.154785 
	C1780.377808,806.645813 1742.865234,821.925842 1701.007202,825.852356 
	C1683.442749,827.500061 1665.783936,829.105835 1648.171509,829.068359 
	C1616.887451,829.001831 1585.605957,827.670044 1554.323486,826.863953 
	C1498.544922,825.426697 1443.108765,829.462341 1387.860840,836.949768 
	C1351.880493,841.825806 1315.739380,845.980469 1280.544312,855.109375 
	C1211.368408,873.052368 1149.292358,904.705688 1096.423218,953.333313 
	C1087.482910,961.556458 1079.286621,970.583740 1070.577759,979.066162 
	C1067.860718,981.712585 1064.795532,984.148254 1061.518799,986.037231 
	C1057.194946,988.529846 1054.178589,986.863586 1054.175903,981.894470 
	C1054.173096,976.933960 1054.563110,971.864685 1055.626343,967.028992 
	C1066.658569,916.852051 1084.197388,869.262268 1112.657471,826.147827 
	C1129.552612,800.553040 1150.656616,778.545349 1172.541382,757.280945 
	C1192.273804,738.107910 1213.039917,720.088440 1235.975708,704.816162 
	C1267.388306,683.899353 1302.139038,670.729675 1338.602417,661.692810 
	C1374.909302,652.694824 1411.902344,649.977173 1449.129395,649.572937 
	C1498.119751,649.041077 1547.120239,648.003967 1596.102661,648.514160 
	C1660.337036,649.183167 1724.560425,651.043945 1788.783569,652.600159 
	C1823.763306,653.447754 1858.732666,654.724243 1893.706543,655.813660 
	C1895.350708,655.864807 1896.993042,655.978027 1899.371216,656.100037 
	C1883.754028,706.751404 1856.630615,748.929077 1814.174805,781.154785 
z"/>
<path fill="#767676" opacity="1.000000" stroke="none" 
	d="
M1151.944946,922.961304 
	C1148.060181,925.960083 1144.297852,929.136536 1140.262085,931.916016 
	C1134.171753,936.110413 1127.890869,940.027893 1121.344482,944.028015 
	C1120.998047,943.992920 1121.037109,944.026245 1121.037109,944.026245 
	C1124.401855,941.224731 1127.550903,938.097778 1131.178345,935.692688 
	C1137.748535,931.336548 1144.604004,927.410828 1151.657959,923.144043 
	C1151.975708,922.982605 1151.944946,922.961304 1151.944946,922.961304 
z"/>
<path fill="#767676" opacity="1.000000" stroke="none" 
	d="
M1151.984009,922.998108 
	C1152.939575,922.168640 1153.886841,921.323669 1154.834106,920.478638 
	C1155.043579,920.767151 1155.253052,921.055603 1155.462524,921.344055 
	C1154.497192,921.823059 1153.531860,922.302002 1152.255737,922.871094 
	C1151.944946,922.961304 1151.975708,922.982605 1151.984009,922.998108 
z"/>
<path fill="#767676" opacity="1.000000" stroke="none" 
	d="
M1157.498535,919.495728 
	C1157.512451,919.506470 1157.484619,919.484924 1157.498535,919.495728 
z"/>
<path fill="#767676" opacity="1.000000" stroke="none" 
	d="
M1120.980469,943.974243 
	C1120.876587,944.006104 1120.790161,944.056641 1120.870483,944.066711 
	C1121.037109,944.026245 1120.998047,943.992920 1120.980469,943.974243 
z"/>
</svg>