<svg width="24" height="24" viewBox="0 0 24 24" fill="none" xmlns="http://www.w3.org/2000/svg">
  <path d="M8 3H16C16.5523 3 17 3.44772 17 4V5C17 5.55228 16.5523 6 16 6H8C7.44772 6 7 5.55228 7 5V4C7 3.44772 7.44772 3 8 3Z" fill="#637381"/>
  <path d="M5 8H19C19.5523 8 20 8.44772 20 9V10C20 10.5523 19.5523 11 19 11H5C4.44772 11 4 10.5523 4 10V9C4 8.44772 4.44772 8 5 8Z" fill="#637381"/>
  <path d="M5 13H19C19.5523 13 20 13.4477 20 14V15C20 15.5523 19.5523 16 19 16H5C4.44772 16 4 15.5523 4 15V14C4 13.4477 4.44772 13 5 13Z" fill="#637381"/>
  <path d="M8 18H16C16.5523 18 17 18.4477 17 19V20C17 20.5523 16.5523 21 16 21H8C7.44772 21 7 20.5523 7 20V19C7 18.4477 7.44772 18 8 18Z" fill="#637381"/>
</svg>
