<svg width="24" height="24" viewBox="0 0 24 24" fill="none" xmlns="http://www.w3.org/2000/svg">
  <path opacity="0.4" d="M3 9C2.44772 9 2 9.44772 2 10V11C2 11.5523 2.44772 12 3 12H21C21.5523 12 22 11.5523 22 11V10C22 9.44772 21.5523 9 21 9H3Z" fill="#637381"/>
  <path fill-rule="evenodd" clip-rule="evenodd" d="M7 14C6.44772 14 6 14.4477 6 15V19C6 19.5523 6.44772 20 7 20C7.55228 20 8 19.5523 8 19V15C8 14.4477 7.55228 14 7 14ZM16 14C15.4477 14 15 14.4477 15 15V19C15 19.5523 15.4477 20 16 20C16.5523 20 17 19.5523 17 19V15C17 14.4477 16.5523 14 16 14ZM5 8C4.44772 8 4 8.44772 4 9V10C4 10.5523 4.44772 11 5 11H19C19.5523 11 20 10.5523 20 10V9C20 8.44772 19.5523 8 19 8H5Z" fill="#637381"/>
</svg>
